{"title":"Dirty Grandpa 2016 TS x264-Garmin","uid":13386588,"size":1340090271,"categoryP":"video","categoryS":"movies","magnet":"?xt=urn:btih:e36e1a52b5e293e804107cd9e269f602f0dca975&amp;dn=Dirty+Grandpa+2016+TS+x264-Garmin&amp;tr=udp%3A%2F%2Ftracker.leechers-paradise.org%3A6969&amp;tr=udp%3A%2F%2Fzer0day.ch%3A1337&amp;tr=udp%3A%2F%2Fopen.demonii.com%3A1337&amp;tr=udp%3A%2F%2Ftracker.coppersurfer.tk%3A6969&amp;tr=udp%3A%2F%2Fexodus.desync.com%3A6969","seeders":0,"leechers":1,"uploader":"makintos13","files":3,"time":1454299216,"description":"screns:\r\n \nhttp://imgmak.com/Kfy\r\n \nhttp://imgmak.com/Kf6\r\n \nhttp://imgmak.com/Kf9\r\n \nhttp://imgmak.com/KfM\r\n \nhttp://imgmak.com/KfO\r\n \nhttp://imgmak.com/KfP\r\n \nhttp://imgmak.com/KfY\r\n\r\n\r\nDirty Grandpa 2016 TS x264-Garmin\r\n\r\n\r\n\r\nComplete name : Dirty.Grandpa.2016.TS.x264-Garmin\r\nFormat : Matroska\r\nFormat version : Version 4 / Version 2\r\nFile size : 1.22 GiB\r\nDuration : 1h 35mn\r\nOverall bit rate : 1 831 Kbps\r\n\r\nVideo\r\nID : 1\r\nFormat : AVC\r\nFormat/Info : Advanced Video Codec\r\nFormat profile :   \r\nFormat settings, CABAC : Yes\r\nFormat settings, ReFrames : 4 frames\r\nCodec ID : V_MPEG4/ISO/AVC\r\nDuration : 1h 35mn\r\nBit rate : 1 602 Kbps\r\nWidth : 720 pixels\r\nHeight : 304 pixels\r\nDisplay aspect ratio : 2.35:1\r\nFrame rate mode : Constant\r\nFrame rate : 30.000 fps\r\nColor space : YUV\r\nChroma subsampling : 4:2:0\r\nBit depth : 8 bits\r\nScan type : Progressive\r\nBits/(Pixel*Frame) : 0.244\r\nStream size : 1.07 GiB (88%)\r\nWriting library : x264 core 148 r2638 7599210\r\nEncoding settings : cabac=1 / ref=5 / deblock=1:-1:-1 / analyse=0x3:0x133 / me=hex / subme=9 / psy=1 / psy_rd=1.00:0.80 / mixed_ref=1 / me_range=16 / chroma_me=1 / trellis=1 / 8x8dct=1 / cqm=0 / deadzone=21,11 / fast_pskip=1 / chroma_qp_offset=-4 / threads=9 / lookahead_threads=1 / sliced_threads=0 / nr=0 / decimate=1 / interlaced=0 / bluray_compat=0 / constrained_intra=0 / bframes=3 / b_pyramid=1 / b_adapt=2 / b_bias=0 / direct=1 / weightb=1 / open_gop=0 / weightp=2 / keyint=300 / keyint_min=30 / scenecut=50 / intra_refresh=0 / rc_lookahead=50 / rc=crf / mbtree=1 / crf=18.0 / qcomp=0.60 / qpmin=0 / qpmax=69 / qpstep=4 / ip_ratio=1.40 / aq=1:1.50\r\nLanguage : English\r\nDefault : Yes\r\nForced : Yes\r\n\r\nAudio\r\nID : 2\r\nFormat : MPEG Audio\r\nFormat version : Version 1\r\nFormat profile : Layer 3\r\nMode : Joint stereo\r\nMode extension : MS Stereo\r\nCodec ID : A_MPEG/L3\r\nCodec ID/Hint : MP3\r\nDuration : 1h 35mn\r\nBit rate mode : Constant\r\nBit rate : 192 Kbps\r\nChannel(s) : 2 channels\r\nSampling rate : 48.0 KHz\r\nCompression mode : Lossy\r\nStream size : 131 MiB (10%)\r\nWriting library : LAME3.99r\r\nEncoding settings : -m j -V 4 -q 2 -lowpass 18.6 -b 192\r\nLanguage : English\r\nDefault : Yes\r\nForced : Yes\r\nSource Video : Dirty.Grandpa.2016.D.CAMRip.1400MB\r\nSource Audio : Dirty.Grandpa.2016.TS.XviD-STANDARD\r\nGenre : Comedy\r\nRelease Date : 22 January 2016 (USA)\r\nSample Included : Yes\r\nImdb : http://www.imdb.com/title/tt1860213/\r\n\r\nSo here is our version of Dirty Grandpa. Weve had this done for about a week now awaiting english audio.\r\nThis is the Russian print. It was not bad but not great, fixed pixelation, and flicker completely fixed.\r\nColors gama brightness and sharpness. We want to thank STANDARD for the audio. As always check sample\r\nas screens always look better. On a side note you have to see this movie is one of the funniest we\r\nhave seen in a long time","torrent":{"xt":"urn:btih:e36e1a52b5e293e804107cd9e269f602f0dca975","amp;dn":"Dirty+Grandpa+2016+TS+x264-Garmin","amp;tr":["udp%3A%2F%2Ftracker.leechers-paradise.org%3A6969","udp%3A%2F%2Fzer0day.ch%3A1337","udp%3A%2F%2Fopen.demonii.com%3A1337","udp%3A%2F%2Ftracker.coppersurfer.tk%3A6969","udp%3A%2F%2Fexodus.desync.com%3A6969"],"infoHash":"e36e1a52b5e293e804107cd9e269f602f0dca975","infoHashBuffer":{"type":"Buffer","data":[227,110,26,82,181,226,147,232,4,16,124,217,226,105,246,2,240,220,169,117]},"announce":[],"urlList":[]}}